<svg xmlns="http://www.w3.org/2000/svg" width="1200" height="630" viewBox="0 0 1200 630">
  <defs>
    <filter id="shadow" x="-10%" y="-10%" width="120%" height="130%">
      <feDropShadow dx="0" dy="10" stdDeviation="14" flood-color="#4d342a" flood-opacity=".12"/>
    </filter>
    <pattern id="dots" width="18" height="18" patternUnits="userSpaceOnUse">
      <circle cx="2" cy="2" r="1.2" fill="#efcbd9" opacity=".75"/>
    </pattern>
    <linearGradient id="paper" x1="0" y1="0" x2="1" y2="1">
      <stop offset="0" stop-color="#fffdf8"/>
      <stop offset=".52" stop-color="#fff8ef"/>
      <stop offset="1" stop-color="#fffaf4"/>
    </linearGradient>
  </defs>

  <rect width="1200" height="630" fill="#fff7f3"/>
  <rect width="1200" height="630" fill="url(#dots)" opacity=".45"/>
  <path d="M0 517c95-55 146-24 225-7 92 20 165 9 237-28 74-38 149-36 220-3 104 47 178 39 255-18 84-62 166-55 263-11v180H0z" fill="#edf5f1" opacity=".9"/>
  <path d="M824 0h216l-66 54c-31 24-68 35-107 31l-88-9z" fill="#f8dce7" opacity=".95"/>
  <path d="M112 0h315l-89 76c-36 29-83 41-128 33L52 82z" fill="#f8dce7" opacity=".82"/>
  <path d="M1041 560c51-37 98-58 159-70v140h-159z" fill="#f7d6e3" opacity=".9"/>

  <g filter="url(#shadow)">
    <path d="M105 61c132-23 261-25 388-7 31 4 55 31 55 62v384c0 28-24 49-52 45-126-18-252-16-379 8-31 6-59-18-59-49V113c0-26 20-48 47-52z" fill="url(#paper)"/>
    <path d="M552 116c0-31 23-58 54-62 127-18 256-16 388 7 27 4 47 26 47 52v391c0 31-28 55-59 49-127-24-253-26-379-8-28 4-51-17-51-45z" fill="url(#paper)"/>
    <path d="M547 73c14 90 14 381 0 470" fill="none" stroke="#d8c7bc" stroke-width="2"/>
    <path d="M557 73c-10 91-10 381 0 470" fill="none" stroke="#efe3dc" stroke-width="8" opacity=".75"/>
  </g>

  <g opacity=".9">
    <path d="M91 38l42 2-5 54-42-2z" fill="#f7b9cf" opacity=".42"/>
    <path d="M919 39l124 24-9 45-124-24z" fill="#f7b9cf" opacity=".46"/>
    <path d="M255 499l173-22 5 41-173 22z" fill="#f7b9cf" opacity=".34"/>
    <path d="M790 325l152-29 8 43-152 29z" fill="#cfe6ee" opacity=".62"/>
  </g>

  <g>
    <rect x="86" y="106" width="226" height="330" rx="10" fill="#fffefa" stroke="#ecd9d0" stroke-width="2"/>
    <rect x="102" y="122" width="194" height="222" rx="96" fill="#f9e6ef" stroke="#e6b7ca" stroke-width="2" stroke-dasharray="4 6"/>
    <rect x="108" y="128" width="182" height="210" rx="91" fill="#f4bad3" opacity=".55"/>
    <line x1="116" y1="385" x2="282" y2="385" stroke="#e5d3ca" stroke-width="2" stroke-dasharray="5 6"/>
  </g>

  <g fill="none" stroke="#ecd9d0" stroke-width="2">
    <rect x="332" y="132" width="220" height="106" rx="10"/>
    <rect x="332" y="294" width="220" height="105" rx="10"/>
    <rect x="332" y="420" width="220" height="78" rx="10"/>
    <rect x="660" y="120" width="360" height="160" rx="12"/>
    <rect x="660" y="304" width="360" height="104" rx="12"/>
    <rect x="660" y="438" width="360" height="88" rx="12"/>
  </g>

  <g stroke="#eadbd2" stroke-width="1.4" stroke-dasharray="3 6">
    <line x1="356" y1="172" x2="528" y2="172"/>
    <line x1="356" y1="207" x2="528" y2="207"/>
    <line x1="356" y1="334" x2="528" y2="334"/>
    <line x1="356" y1="371" x2="528" y2="371"/>
    <line x1="356" y1="462" x2="528" y2="462"/>
    <line x1="356" y1="486" x2="528" y2="486"/>
    <line x1="684" y1="160" x2="996" y2="160"/>
    <line x1="684" y1="195" x2="996" y2="195"/>
    <line x1="684" y1="230" x2="996" y2="230"/>
    <line x1="684" y1="344" x2="996" y2="344"/>
    <line x1="684" y1="376" x2="996" y2="376"/>
    <line x1="684" y1="480" x2="996" y2="480"/>
  </g>

  <g fill="#f3bfd4" opacity=".85">
    <circle cx="342" cy="230" r="5"/>
    <circle cx="639" cy="328" r="5"/>
    <circle cx="1068" cy="262" r="5"/>
    <circle cx="1078" cy="420" r="5"/>
  </g>
  <g fill="none" stroke="#e9b7cc" stroke-width="2" opacity=".8">
    <circle cx="972" cy="489" r="34"/>
    <circle cx="972" cy="489" r="25"/>
    <path d="M972 455c10 15 10 53 0 68M938 489c18-7 50-7 68 0"/>
  </g>

  <path d="M46 532c51-11 73-48 101-93 15 47 49 73 101 83-48 16-82 45-101 89-25-44-54-68-101-79z" fill="#d8eadf" opacity=".7"/>
  <g fill="#eeb7cc" opacity=".8">
    <ellipse cx="950" cy="36" rx="13" ry="7" transform="rotate(-28 950 36)"/>
    <ellipse cx="1099" cy="207" rx="11" ry="6" transform="rotate(-18 1099 207)"/>
    <ellipse cx="992" cy="532" rx="12" ry="7" transform="rotate(31 992 532)"/>
  </g>
  <text x="1018" y="588" fill="#211816" font-family="Hiragino Maru Gothic ProN, Yu Gothic, sans-serif" font-size="22" font-weight="800">Buddies</text>
</svg>
